<?xml version="1.0" encoding="UTF-8" standalone="no"?>
<!-- Created with Inkscape (http://www.inkscape.org/) -->

<svg
   version="1.1"
   id="svg1"
   width="441.84"
   height="233.53333"
   viewBox="0 0 441.84 233.53333"
   xmlns="http://www.w3.org/2000/svg"
   xmlns:svg="http://www.w3.org/2000/svg">
  <defs
     id="defs1" />
  <g
     id="g1">
    <g
       id="group-R5">
      <path
         id="path2"
         d="m 1589.94,1751.51 h 71.68 l 86.73,-181.76 v 181.76 h 46.07 v -231.03 h -68.15 l -89.6,192 v -192 h -46.73 v 231.03"
         style="fill:#040606;fill-opacity:1;fill-rule:nonzero;stroke:none"
         transform="matrix(0.13333333,0,0,-0.13333333,0,233.53333)" />
      <path
         id="path3"
         d="m 1938.11,1596.64 c -7.68,0.63 -14.67,0.52 -20.96,-0.32 -6.3,-0.87 -11.8,-2.41 -16.49,-4.64 -4.69,-2.24 -8.32,-5.18 -10.87,-8.8 -2.56,-3.64 -3.84,-7.79 -3.84,-12.48 0,-2.77 0.48,-5.5 1.43,-8.17 0.97,-2.66 2.41,-5.12 4.33,-7.35 1.91,-2.25 4.32,-4.06 7.2,-5.44 2.88,-1.4 6.24,-2.08 10.07,-2.08 4.27,0 8.11,0.9 11.53,2.71 3.41,1.81 6.29,4.01 8.64,6.57 4.26,5.11 6.82,10.88 7.68,17.27 0.85,6.41 1.28,13.98 1.28,22.73 z m 6.08,-76.16 c -0.86,4.9 -1.34,9.22 -1.45,12.95 -0.1,3.73 -0.15,6.77 -0.15,9.12 -4.48,-6.39 -9.12,-11.35 -13.93,-14.88 -4.79,-3.51 -9.33,-6.07 -13.59,-7.67 -4.28,-1.61 -8.27,-2.56 -12,-2.89 -3.74,-0.32 -6.67,-0.47 -8.8,-0.47 -11.74,0 -20.6,1.38 -26.56,4.16 -5.98,2.76 -10.56,5.64 -13.76,8.64 -4.92,4.9 -8.48,10.45 -10.73,16.63 -2.23,6.19 -3.36,12.48 -3.36,18.89 0,3.19 0.37,6.98 1.13,11.36 0.74,4.37 2.34,8.84 4.79,13.43 2.45,4.59 5.93,9.13 10.4,13.61 4.48,4.48 10.46,8.42 17.92,11.83 4.91,2.13 10.29,3.85 16.16,5.13 5.87,1.28 11.68,2.18 17.45,2.71 5.76,0.53 11.3,0.85 16.64,0.96 5.33,0.11 9.92,0.17 13.76,0.17 0,5.33 -0.11,9.49 -0.33,12.48 -0.21,2.97 -0.85,5.97 -1.91,8.95 -1.08,2.99 -2.56,5.34 -4.48,7.04 -1.93,1.71 -3.9,3.04 -5.92,4.01 -2.03,0.95 -4.06,1.6 -6.09,1.91 -2.03,0.33 -3.57,0.49 -4.63,0.49 -3.42,0 -6.72,-0.75 -9.93,-2.25 -3.2,-1.49 -5.86,-3.73 -7.99,-6.72 -1.71,-2.77 -2.73,-5.39 -3.04,-7.84 -0.32,-2.45 -0.48,-4.64 -0.48,-6.56 h -46.41 c 0,2.14 0.17,4.75 0.48,7.84 0.33,3.1 1.13,6.41 2.41,9.92 1.27,3.53 3.08,7.05 5.43,10.56 2.35,3.53 5.66,6.78 9.93,9.77 7.46,5.33 15.56,8.85 24.31,10.55 8.75,1.71 16.97,2.56 24.64,2.56 3.42,0 7.58,-0.21 12.48,-0.63 4.91,-0.43 10.03,-1.4 15.36,-2.88 5.34,-1.5 10.62,-3.58 15.84,-6.24 5.23,-2.67 9.87,-6.35 13.93,-11.05 2.76,-3.19 4.9,-6.77 6.4,-10.71 1.49,-3.96 2.6,-7.73 3.35,-11.37 0.75,-3.62 1.18,-6.98 1.28,-10.08 0.11,-3.09 0.17,-5.59 0.17,-7.52 l 0.31,-64.96 c 0,-6.82 0.27,-13.65 0.8,-20.48 0.54,-6.82 1.55,-13.65 3.05,-20.47 h -42.88"
         style="fill:#040606;fill-opacity:1;fill-rule:nonzero;stroke:none"
         transform="matrix(0.13333333,0,0,-0.13333333,0,233.53333)" />
      <path
         id="path4"
         d="m 2131.06,1522.71 c -7.68,-2.13 -14.77,-3.51 -21.27,-4.16 -6.52,-0.63 -11.68,-0.96 -15.53,-0.96 -12.02,0 -21.26,1.66 -27.71,4.96 -6.43,3.31 -11.16,7.25 -14.17,11.84 -3,4.59 -4.78,9.34 -5.31,14.25 -0.55,4.9 -0.81,9.06 -0.81,12.48 v 88.63 h -31.04 v 31.68 h 31.04 v 31.48 l 47.36,17.16 v -48.64 h 38.4 v -31.68 h -38.4 v -72.96 c 0,-3.63 0.16,-6.93 0.48,-9.92 0.32,-2.99 1.12,-5.55 2.4,-7.67 1.28,-2.14 3.36,-3.74 6.24,-4.81 2.89,-1.07 6.99,-1.59 12.32,-1.59 3.63,0 6.45,0.05 8.48,0.16 2.03,0.1 4.54,0.36 7.52,0.8 v -31.05"
         style="fill:#040606;fill-opacity:1;fill-rule:nonzero;stroke:none"
         transform="matrix(0.13333333,0,0,-0.13333333,0,233.53333)" />
      <path
         id="path5"
         d="m 2170.74,1682.4 h 47.37 v -161.92 h -47.37 z m -1.6,69.11 h 50.56 v -41.28 h -50.56 v 41.28"
         style="fill:#040606;fill-opacity:1;fill-rule:nonzero;stroke:none"
         transform="matrix(0.13333333,0,0,-0.13333333,0,233.53333)" />
      <path
         id="path6"
         d="m 2311.54,1599.52 c 0,-18.14 2.99,-31.31 8.96,-39.52 5.97,-8.22 14.83,-12.33 26.56,-12.33 5.13,0 9.86,0.85 14.24,2.56 4.37,1.71 8.06,4.7 11.04,8.97 2.99,4.26 5.34,9.97 7.04,17.12 1.7,7.14 2.56,16.05 2.56,26.71 0,5.33 -0.37,10.99 -1.12,16.97 -0.75,5.96 -2.34,11.51 -4.79,16.64 -2.47,5.11 -6.04,9.32 -10.73,12.63 -4.69,3.32 -10.98,4.96 -18.87,4.96 -8.75,0 -15.47,-2.18 -20.17,-6.56 -4.69,-4.37 -8.11,-9.49 -10.23,-15.36 -2.14,-5.87 -3.42,-11.89 -3.84,-18.08 -0.44,-6.19 -0.65,-11.09 -0.65,-14.71 z m -48.64,0.31 c 0,9.81 1.39,19.78 4.16,29.92 2.77,10.14 7.36,19.37 13.76,27.69 6.41,8.32 14.93,15.15 25.61,20.48 10.66,5.33 23.99,7.99 40,7.99 14.71,0 27.35,-2.29 37.92,-6.87 10.55,-4.59 19.24,-10.78 26.07,-18.56 6.83,-7.8 11.85,-16.8 15.04,-27.05 3.2,-10.23 4.8,-21.01 4.8,-32.31 0,-11.32 -1.66,-22.2 -4.96,-32.65 -3.31,-10.45 -8.42,-19.67 -15.36,-27.67 -6.93,-8 -15.73,-14.36 -26.4,-19.05 -10.67,-4.68 -23.35,-7.04 -38.08,-7.04 -11.51,0 -22.3,1.76 -32.32,5.29 -10.02,3.51 -18.77,8.84 -26.24,15.99 -7.47,7.15 -13.34,16.06 -17.59,26.72 -4.28,10.67 -6.41,23.05 -6.41,37.12"
         style="fill:#040606;fill-opacity:1;fill-rule:nonzero;stroke:none"
         transform="matrix(0.13333333,0,0,-0.13333333,0,233.53333)" />
      <path
         id="path7"
         d="m 2476.97,1653.28 c 0,0.2 0,1.33 0,3.36 0,2.02 -0.05,4.48 -0.15,7.35 -0.11,2.88 -0.22,6.03 -0.33,9.44 -0.1,3.41 -0.26,6.51 -0.47,9.28 h 45.44 l 1.27,-24.32 c 1.07,1.93 2.78,4.43 5.13,7.52 2.35,3.09 5.54,6.19 9.6,9.28 4.04,3.1 9.17,5.76 15.35,8.01 6.19,2.24 13.65,3.36 22.4,3.36 7.9,0 14.73,-1.08 20.48,-3.2 5.77,-2.14 10.62,-4.75 14.56,-7.84 3.95,-3.1 7.04,-6.4 9.29,-9.93 2.24,-3.51 3.89,-6.67 4.96,-9.43 0.85,-2.57 1.59,-5.08 2.24,-7.52 0.63,-2.46 1.12,-5.44 1.43,-8.96 0.33,-3.52 0.54,-7.85 0.65,-12.97 0.11,-5.11 0.15,-11.41 0.15,-18.87 v -87.36 h -48.32 v 100.47 c 0,3.41 -0.1,6.57 -0.31,9.45 -0.21,2.88 -0.96,5.59 -2.24,8.15 -1.71,3.63 -4.43,6.83 -8.16,9.6 -3.74,2.78 -8.7,4.16 -14.88,4.16 -5.12,0 -9.87,-1.11 -14.24,-3.36 -4.37,-2.24 -7.84,-5.27 -10.4,-9.12 -1.49,-2.13 -2.83,-5.22 -4,-9.28 -1.18,-4.05 -1.76,-9.17 -1.76,-15.36 v -94.71 h -47.69 v 132.8"
         style="fill:#040606;fill-opacity:1;fill-rule:nonzero;stroke:none"
         transform="matrix(0.13333333,0,0,-0.13333333,0,233.53333)" />
      <path
         id="path8"
         d="m 2773.3,1596.64 c -7.67,0.63 -14.67,0.52 -20.96,-0.32 -6.3,-0.87 -11.79,-2.41 -16.48,-4.64 -4.7,-2.24 -8.32,-5.18 -10.88,-8.8 -2.56,-3.64 -3.84,-7.79 -3.84,-12.48 0,-2.77 0.48,-5.5 1.44,-8.17 0.96,-2.66 2.4,-5.12 4.32,-7.35 1.92,-2.25 4.32,-4.06 7.2,-5.44 2.88,-1.4 6.24,-2.08 10.08,-2.08 4.27,0 8.11,0.9 11.52,2.71 3.41,1.81 6.29,4.01 8.65,6.57 4.25,5.11 6.81,10.88 7.67,17.27 0.85,6.41 1.28,13.98 1.28,22.73 z m 6.08,-76.16 c -0.85,4.9 -1.33,9.22 -1.44,12.95 -0.11,3.73 -0.16,6.77 -0.16,9.12 -4.48,-6.39 -9.12,-11.35 -13.92,-14.88 -4.8,-3.51 -9.34,-6.07 -13.6,-7.67 -4.27,-1.61 -8.27,-2.56 -12,-2.89 -3.74,-0.32 -6.67,-0.47 -8.8,-0.47 -11.74,0 -20.59,1.38 -26.56,4.16 -5.98,2.76 -10.56,5.64 -13.76,8.64 -4.91,4.9 -8.48,10.45 -10.72,16.63 -2.24,6.19 -3.36,12.48 -3.36,18.89 0,3.19 0.37,6.98 1.12,11.36 0.74,4.37 2.35,8.84 4.8,13.43 2.45,4.59 5.92,9.13 10.4,13.61 4.48,4.48 10.46,8.42 17.92,11.83 4.91,2.13 10.29,3.85 16.16,5.13 5.87,1.28 11.68,2.18 17.44,2.71 5.76,0.53 11.31,0.85 16.64,0.96 5.33,0.11 9.92,0.17 13.76,0.17 0,5.33 -0.11,9.49 -0.32,12.48 -0.22,2.97 -0.85,5.97 -1.92,8.95 -1.07,2.99 -2.55,5.34 -4.48,7.04 -1.92,1.71 -3.89,3.04 -5.92,4.01 -2.03,0.95 -4.06,1.6 -6.08,1.91 -2.03,0.33 -3.57,0.49 -4.64,0.49 -3.42,0 -6.72,-0.75 -9.92,-2.25 -3.2,-1.49 -5.87,-3.73 -8,-6.72 -1.71,-2.77 -2.72,-5.39 -3.04,-7.84 -0.32,-2.45 -0.47,-4.64 -0.47,-6.56 h -46.41 c 0,2.14 0.17,4.75 0.48,7.84 0.32,3.1 1.12,6.41 2.4,9.92 1.28,3.53 3.09,7.05 5.44,10.56 2.34,3.53 5.65,6.78 9.92,9.77 7.46,5.33 15.57,8.85 24.32,10.55 8.75,1.71 16.96,2.56 24.64,2.56 3.41,0 7.58,-0.21 12.48,-0.63 4.91,-0.43 10.03,-1.4 15.36,-2.88 5.33,-1.5 10.61,-3.58 15.84,-6.24 5.22,-2.67 9.86,-6.35 13.92,-11.05 2.77,-3.19 4.91,-6.77 6.4,-10.71 1.49,-3.96 2.61,-7.73 3.36,-11.37 0.74,-3.62 1.17,-6.98 1.28,-10.08 0.11,-3.09 0.17,-5.59 0.17,-7.52 l 0.31,-64.96 c 0,-6.82 0.26,-13.65 0.8,-20.48 0.54,-6.82 1.54,-13.65 3.05,-20.47 h -42.89"
         style="fill:#040606;fill-opacity:1;fill-rule:nonzero;stroke:none"
         transform="matrix(0.13333333,0,0,-0.13333333,0,233.53333)" />
      <path
         id="path9"
         d="m 2870.9,1751.51 h 47.36 v -231.03 h -47.36 v 231.03"
         style="fill:#040606;fill-opacity:1;fill-rule:nonzero;stroke:none"
         transform="matrix(0.13333333,0,0,-0.13333333,0,233.53333)" />
      <path
         id="path10"
         d="m 1638.58,1270.72 h 40 c 2.99,0 6.94,0.26 11.85,0.79 4.9,0.54 9.38,2.4 13.44,5.6 0.85,0.64 2.02,1.66 3.51,3.04 1.5,1.39 2.93,3.15 4.33,5.29 1.39,2.13 2.56,4.74 3.51,7.84 0.96,3.08 1.45,6.66 1.45,10.71 0,7.89 -1.45,13.82 -4.33,17.76 -2.88,3.95 -5.48,6.68 -7.84,8.17 -3.84,2.76 -8.26,4.36 -13.27,4.79 -5.02,0.43 -11.47,0.65 -19.36,0.65 h -33.29 z m -48.95,100.79 h 88.63 c 6.41,0 12.8,-0.11 19.21,-0.31 6.4,-0.22 12.58,-0.8 18.56,-1.76 5.96,-0.97 11.72,-2.46 17.28,-4.48 5.54,-2.03 10.56,-4.96 15.04,-8.8 7.25,-6.19 12.42,-13.28 15.52,-21.28 3.08,-8.01 4.64,-15.74 4.64,-23.2 0,-10.88 -1.98,-19.8 -5.92,-26.72 -3.96,-6.94 -8.6,-12.48 -13.93,-16.64 -5.33,-4.16 -10.71,-7.2 -16.15,-9.12 -5.44,-1.93 -9.55,-3.31 -12.32,-4.16 8.75,-0.86 15.62,-2.67 20.64,-5.44 5.01,-2.78 8.9,-6.46 11.68,-11.05 2.76,-4.59 4.74,-9.97 5.92,-16.15 1.17,-6.19 2.28,-13.02 3.36,-20.49 1.7,-13.65 3.08,-23.73 4.16,-30.23 1.06,-6.52 2.02,-11.36 2.88,-14.57 1.28,-5.11 2.45,-8.68 3.51,-10.72 1.07,-2.03 2.25,-3.99 3.53,-5.91 h -54.73 c -0.63,3.2 -1.49,8.73 -2.56,16.63 -1.06,7.9 -2.18,16.21 -3.36,24.96 -1.17,8.75 -2.35,16.81 -3.51,24.17 -1.18,7.35 -2.2,12.21 -3.05,14.56 -1.06,3.19 -2.61,5.7 -4.64,7.52 -2.03,1.81 -4.16,3.14 -6.39,3.99 -2.24,0.85 -4.59,1.34 -7.04,1.45 -2.46,0.1 -4.75,0.15 -6.89,0.15 h -43.51 v -93.43 h -50.56 v 231.03"
         style="fill:#040606;fill-opacity:1;fill-rule:nonzero;stroke:none"
         transform="matrix(0.13333333,0,0,-0.13333333,0,233.53333)" />
      <path
         id="path11"
         d="m 1911.86,1239.04 c 0,1.91 -0.16,4.84 -0.48,8.8 -0.32,3.94 -1.39,7.94 -3.2,11.99 -1.81,4.05 -4.64,7.63 -8.48,10.72 -3.84,3.1 -9.17,4.64 -16,4.64 -5.12,0 -9.55,-1.01 -13.28,-3.03 -3.73,-2.03 -6.83,-4.7 -9.28,-8 -2.46,-3.31 -4.32,-7.15 -5.6,-11.53 -1.28,-4.37 -2.03,-8.9 -2.24,-13.59 z m -60.16,-29.77 c 0,-2.56 0.16,-6.29 0.48,-11.2 0.32,-4.91 1.54,-9.71 3.68,-14.39 2.13,-4.7 5.38,-8.8 9.76,-12.32 4.37,-3.52 10.72,-5.29 19.04,-5.29 5.97,0 11.57,1.5 16.8,4.48 5.23,2.99 9.01,8.97 11.36,17.92 h 43.2 c -0.22,-1.91 -0.48,-4.2 -0.8,-6.87 -0.32,-2.68 -1.01,-5.5 -2.08,-8.49 -1.07,-2.98 -2.61,-6.19 -4.64,-9.6 -2.03,-3.4 -4.64,-6.82 -7.84,-10.23 -5.97,-6.19 -13.92,-10.88 -23.84,-14.08 -9.92,-3.21 -20.85,-4.81 -32.8,-4.81 -3.41,0 -7.52,0.22 -12.32,0.65 -4.8,0.42 -9.82,1.38 -15.05,2.88 -5.23,1.49 -10.43,3.51 -15.59,6.07 -5.15,2.57 -9.88,6.08 -14.18,10.57 -7.51,7.67 -12.89,16.84 -16.11,27.51 -3.22,10.67 -4.83,22.5 -4.83,35.52 0,6.62 0.48,13.44 1.45,20.48 0.97,7.04 2.69,13.93 5.16,20.65 2.47,6.72 5.9,13.11 10.3,19.2 4.41,6.07 10.05,11.46 16.93,16.16 6.23,4.26 13.13,7.57 20.71,9.91 7.58,2.35 15.85,3.53 24.81,3.53 5.76,0 11.73,-0.65 17.92,-1.93 6.18,-1.28 12.16,-3.41 17.92,-6.39 5.76,-2.99 11.2,-7 16.32,-12 5.12,-5.02 9.49,-11.25 13.12,-18.73 2.77,-5.54 4.85,-11.09 6.24,-16.64 1.38,-5.54 2.34,-10.92 2.88,-16.16 0.53,-5.22 0.8,-10.08 0.8,-14.55 0,-4.48 -0.11,-8.44 -0.32,-11.85 H 1851.7"
         style="fill:#040606;fill-opacity:1;fill-rule:nonzero;stroke:none"
         transform="matrix(0.13333333,0,0,-0.13333333,0,233.53333)" />
      <path
         id="path12"
         d="m 2081.46,1169.27 c 11.31,0 19.9,4.91 25.77,14.72 5.87,9.81 8.8,22.72 8.8,38.72 0,4.7 -0.38,10.09 -1.13,16.17 -0.74,6.08 -2.29,11.78 -4.64,17.11 -2.34,5.33 -5.65,9.82 -9.92,13.45 -4.27,3.62 -9.91,5.44 -16.95,5.44 -3.84,0 -7.95,-0.86 -12.33,-2.57 -4.37,-1.71 -8.36,-4.64 -12,-8.8 -3.62,-4.16 -6.67,-9.75 -9.11,-16.8 -2.46,-7.03 -3.68,-15.99 -3.68,-26.88 0,-2.34 0.2,-6.29 0.63,-11.84 0.43,-5.54 1.76,-11.2 4.01,-16.96 2.23,-5.75 5.7,-10.83 10.4,-15.19 4.69,-4.38 11.4,-6.57 20.15,-6.57 z m -35.19,132.8 1.28,-23.03 c 3.62,6.4 7.89,11.41 12.79,15.04 4.91,3.62 9.77,6.24 14.56,7.83 4.81,1.6 9.17,2.57 13.13,2.88 3.94,0.32 6.87,0.49 8.8,0.49 10.45,0 19.84,-1.87 28.16,-5.6 8.32,-3.73 15.35,-9.13 21.11,-16.17 5.77,-7.04 10.19,-15.52 13.28,-25.44 3.1,-9.92 4.64,-21.06 4.64,-33.43 0,-11.53 -1.49,-22.46 -4.47,-32.81 -3,-10.35 -7.42,-19.52 -13.28,-27.52 -5.87,-7.99 -13.17,-14.34 -21.92,-19.03 -8.75,-4.7 -19,-7.04 -30.73,-7.04 -7.25,0 -13.49,0.85 -18.72,2.56 -5.22,1.7 -9.6,3.68 -13.11,5.91 -3.53,2.24 -6.35,4.54 -8.48,6.88 -2.14,2.36 -3.74,4.16 -4.8,5.45 v -80.65 h -48.32 v 223.68 h 46.08"
         style="fill:#040606;fill-opacity:1;fill-rule:nonzero;stroke:none"
         transform="matrix(0.13333333,0,0,-0.13333333,0,233.53333)" />
      <path
         id="path13"
         d="m 2249.14,1219.52 c 0,-18.14 2.99,-31.31 8.96,-39.52 5.97,-8.22 14.83,-12.33 26.56,-12.33 5.13,0 9.86,0.85 14.24,2.56 4.37,1.71 8.05,4.7 11.04,8.97 2.99,4.26 5.33,9.97 7.04,17.12 1.7,7.14 2.56,16.05 2.56,26.71 0,5.33 -0.37,10.99 -1.12,16.97 -0.75,5.96 -2.35,11.51 -4.8,16.64 -2.46,5.11 -6.03,9.32 -10.72,12.63 -4.7,3.32 -10.99,4.96 -18.88,4.96 -8.75,0 -15.47,-2.18 -20.16,-6.56 -4.69,-4.37 -8.11,-9.49 -10.24,-15.36 -2.14,-5.87 -3.41,-11.89 -3.83,-18.08 -0.44,-6.19 -0.65,-11.09 -0.65,-14.71 z m -48.64,0.31 c 0,9.81 1.38,19.78 4.16,29.92 2.77,10.14 7.36,19.37 13.76,27.69 6.4,8.32 14.93,15.15 25.6,20.48 10.67,5.33 24,7.99 40,7.99 14.72,0 27.36,-2.29 37.92,-6.87 10.56,-4.59 19.25,-10.78 26.08,-18.56 6.82,-7.8 11.84,-16.8 15.04,-27.05 3.2,-10.23 4.8,-21.01 4.8,-32.31 0,-11.32 -1.66,-22.2 -4.96,-32.65 -3.31,-10.45 -8.43,-19.67 -15.36,-27.67 -6.93,-8 -15.73,-14.36 -26.4,-19.05 -10.67,-4.68 -23.36,-7.04 -38.08,-7.04 -11.52,0 -22.3,1.76 -32.32,5.29 -10.03,3.51 -18.78,8.84 -26.24,15.99 -7.47,7.15 -13.34,16.06 -17.6,26.72 -4.27,10.67 -6.4,23.05 -6.4,37.12"
         style="fill:#040606;fill-opacity:1;fill-rule:nonzero;stroke:none"
         transform="matrix(0.13333333,0,0,-0.13333333,0,233.53333)" />
      <path
         id="path14"
         d="m 2446.89,1187.2 c 0.22,-2.56 0.81,-5.18 1.76,-7.85 0.97,-2.66 2.45,-5.01 4.48,-7.04 2.03,-2.02 4.75,-3.73 8.17,-5.11 3.41,-1.39 7.57,-2.09 12.48,-2.09 8.52,0 14.82,1.98 18.88,5.92 4.05,3.95 6.07,8.37 6.07,13.28 0,3.63 -1.44,6.94 -4.32,9.92 -2.88,2.99 -8.9,5.77 -18.07,8.32 l -29.45,8 c -3.2,0.85 -7.14,2.13 -11.83,3.84 -4.7,1.71 -9.24,4.22 -13.6,7.52 -4.38,3.31 -8.06,7.63 -11.05,12.97 -2.99,5.32 -4.47,12.16 -4.47,20.48 0,7.89 1.7,14.93 5.11,21.11 3.41,6.19 8.27,11.47 14.57,15.84 6.28,4.38 13.76,7.74 22.4,10.09 8.63,2.34 18.18,3.51 28.63,3.51 8.32,0 16.16,-0.95 23.53,-2.88 7.36,-1.91 13.76,-4.85 19.2,-8.8 5.43,-3.94 9.81,-8.9 13.11,-14.88 3.31,-5.97 5.18,-13.01 5.61,-21.11 h -43.21 c -0.43,4.47 -1.49,8 -3.19,10.56 -1.72,2.56 -3.74,4.48 -6.08,5.76 -2.36,1.28 -4.75,2.08 -7.2,2.4 -2.46,0.31 -4.64,0.48 -6.56,0.48 -6.4,0 -11.74,-1.45 -16,-4.33 -4.28,-2.88 -6.41,-6.77 -6.41,-11.68 0,-5.54 1.93,-9.27 5.76,-11.2 3.84,-1.91 9.28,-3.84 16.32,-5.75 l 29.12,-8.01 c 14.72,-4.05 25.6,-9.81 32.64,-17.27 7.04,-7.47 10.57,-16.75 10.57,-27.84 0,-7.05 -1.5,-13.87 -4.48,-20.48 -2.99,-6.61 -7.58,-12.54 -13.76,-17.77 -6.2,-5.22 -13.92,-9.43 -23.21,-12.63 -9.28,-3.21 -20.21,-4.81 -32.79,-4.81 -10.46,0 -20.43,1.4 -29.92,4.16 -9.5,2.78 -17.98,8.01 -25.44,15.69 -5.34,5.54 -8.6,11.25 -9.77,17.11 -1.17,5.87 -1.86,10.73 -2.08,14.57 h 44.48"
         style="fill:#040606;fill-opacity:1;fill-rule:nonzero;stroke:none"
         transform="matrix(0.13333333,0,0,-0.13333333,0,233.53333)" />
      <path
         id="path15"
         d="m 2584.5,1302.4 h 47.37 v -161.92 h -47.37 z m -1.6,69.11 h 50.56 v -41.28 h -50.56 v 41.28"
         style="fill:#040606;fill-opacity:1;fill-rule:nonzero;stroke:none"
         transform="matrix(0.13333333,0,0,-0.13333333,0,233.53333)" />
      <path
         id="path16"
         d="m 2779.38,1142.71 c -7.68,-2.13 -14.77,-3.51 -21.27,-4.16 -6.52,-0.63 -11.68,-0.96 -15.53,-0.96 -12.02,0 -21.26,1.66 -27.71,4.96 -6.43,3.31 -11.16,7.25 -14.17,11.84 -3,4.59 -4.78,9.34 -5.31,14.25 -0.55,4.9 -0.81,9.06 -0.81,12.48 v 88.63 h -31.04 v 31.68 h 31.04 v 31.48 l 47.36,17.16 v -48.64 h 38.4 v -31.68 h -38.4 v -72.96 c 0,-3.63 0.16,-6.93 0.48,-9.92 0.32,-2.99 1.12,-5.55 2.4,-7.67 1.28,-2.14 3.36,-3.74 6.24,-4.81 2.89,-1.07 6.99,-1.59 12.32,-1.59 3.63,0 6.45,0.05 8.49,0.16 2.02,0.1 4.53,0.36 7.51,0.8 v -31.05"
         style="fill:#040606;fill-opacity:1;fill-rule:nonzero;stroke:none"
         transform="matrix(0.13333333,0,0,-0.13333333,0,233.53333)" />
      <path
         id="path17"
         d="m 2860.33,1219.52 c 0,-18.14 2.99,-31.31 8.96,-39.52 5.97,-8.22 14.83,-12.33 26.56,-12.33 5.13,0 9.86,0.85 14.24,2.56 4.37,1.71 8.05,4.7 11.04,8.97 2.99,4.26 5.33,9.97 7.04,17.12 1.7,7.14 2.56,16.05 2.56,26.71 0,5.33 -0.37,10.99 -1.12,16.97 -0.75,5.96 -2.34,11.51 -4.8,16.64 -2.46,5.11 -6.03,9.32 -10.72,12.63 -4.7,3.32 -10.98,4.96 -18.88,4.96 -8.75,0 -15.46,-2.18 -20.16,-6.56 -4.69,-4.37 -8.11,-9.49 -10.24,-15.36 -2.13,-5.87 -3.41,-11.89 -3.83,-18.08 -0.44,-6.19 -0.65,-11.09 -0.65,-14.71 z m -48.64,0.31 c 0,9.81 1.39,19.78 4.16,29.92 2.77,10.14 7.36,19.37 13.76,27.69 6.41,8.32 14.93,15.15 25.6,20.48 10.67,5.33 24,7.99 40,7.99 14.72,0 27.36,-2.29 37.92,-6.87 10.56,-4.59 19.25,-10.78 26.08,-18.56 6.83,-7.8 11.84,-16.8 15.04,-27.05 3.2,-10.23 4.8,-21.01 4.8,-32.31 0,-11.32 -1.66,-22.2 -4.96,-32.65 -3.31,-10.45 -8.43,-19.67 -15.36,-27.67 -6.93,-8 -15.73,-14.36 -26.4,-19.05 -10.67,-4.68 -23.36,-7.04 -38.08,-7.04 -11.52,0 -22.3,1.76 -32.32,5.29 -10.03,3.51 -18.78,8.84 -26.24,15.99 -7.47,7.15 -13.34,16.06 -17.59,26.72 -4.28,10.67 -6.41,23.05 -6.41,37.12"
         style="fill:#040606;fill-opacity:1;fill-rule:nonzero;stroke:none"
         transform="matrix(0.13333333,0,0,-0.13333333,0,233.53333)" />
      <path
         id="path18"
         d="m 3025.14,1262.4 c 0,1.91 -0.06,4.64 -0.16,8.15 -0.12,3.53 -0.27,7.31 -0.49,11.36 -0.21,4.05 -0.48,7.95 -0.8,11.68 -0.31,3.73 -0.58,6.78 -0.79,9.12 h 44.47 l 0.97,-31.03 c 1.48,3.41 3.41,7.04 5.75,10.87 2.36,3.84 5.55,7.37 9.6,10.56 4.05,3.21 9.29,5.77 15.69,7.69 6.39,1.91 14.4,2.66 24,2.23 v -42.55 c -11.95,1.06 -21.34,0.52 -28.17,-1.6 -6.82,-2.14 -11.95,-5.23 -15.36,-9.28 -3.4,-4.06 -5.48,-8.69 -6.24,-13.93 -0.75,-5.22 -1.11,-10.39 -1.11,-15.52 v -79.67 h -47.36 v 121.92"
         style="fill:#040606;fill-opacity:1;fill-rule:nonzero;stroke:none"
         transform="matrix(0.13333333,0,0,-0.13333333,0,233.53333)" />
      <path
         id="path19"
         d="m 3195.06,1302.07 35.52,-112 36.16,112 h 47.04 l -61.12,-158.71 -19.53,-64.32 h -47.67 l 20.48,60.79 -62.08,162.24 h 51.2"
         style="fill:#040606;fill-opacity:1;fill-rule:nonzero;stroke:none"
         transform="matrix(0.13333333,0,0,-0.13333333,0,233.53333)" />
      <path
         id="path20"
         d="m 140,1335.03 h 276.563 v 140 H 0 v -416.56 h 140 v 276.56"
         style="fill:#040606;fill-opacity:1;fill-rule:nonzero;stroke:none"
         transform="matrix(0.13333333,0,0,-0.13333333,0,233.53333)" />
      <path
         id="path21"
         d="m 563.414,756.07 h 120 c 8.953,0 20.789,0.797 35.524,2.403 14.71,1.593 28.152,7.203 40.316,16.8 2.547,1.922 6.074,4.95 10.559,9.118 4.468,4.156 8.792,9.437 12.96,15.839 4.157,6.391 7.68,14.239 10.563,23.52 2.879,9.273 4.32,19.996 4.32,32.164 0,23.668 -4.32,41.43 -12.965,53.277 -8.636,11.836 -16.484,19.997 -23.519,24.481 -11.52,8.312 -24.809,13.109 -39.84,14.398 -15.043,1.278 -34.406,1.922 -58.078,1.922 h -99.84 z m -146.883,302.4 h 265.926 c 19.199,0 38.398,-0.33 57.598,-0.96 19.199,-0.64 37.754,-2.4 55.675,-5.28 17.915,-2.88 35.192,-7.36 51.844,-13.43 16.637,-6.1 31.68,-14.89 45.121,-26.41 21.746,-18.566 37.278,-39.835 46.559,-63.839 9.269,-24 13.922,-47.203 13.922,-69.602 0,-32.633 -5.926,-59.367 -17.762,-80.152 -11.851,-20.809 -25.769,-37.442 -41.762,-49.926 -16.007,-12.48 -32.16,-21.601 -48.476,-27.359 -16.324,-5.762 -28.653,-9.93 -36.961,-12.481 26.234,-2.562 46.875,-8.011 61.918,-16.32 15.035,-8.32 26.719,-19.359 35.043,-33.121 8.304,-13.77 14.234,-29.918 17.758,-48.481 3.511,-18.558 6.871,-39.039 10.078,-61.437 5.117,-40.961 9.273,-71.203 12.48,-90.723 3.196,-19.519 6.074,-34.078 8.645,-43.679 3.836,-15.36 7.347,-26.079 10.554,-32.161 3.2,-6.089 6.727,-12 10.563,-17.757 h -164.16 c -1.918,9.597 -4.489,26.238 -7.68,49.918 -3.211,23.671 -6.566,48.628 -10.078,74.878 -3.527,26.243 -7.051,50.403 -10.563,72.481 -3.527,22.082 -6.566,36.633 -9.121,43.68 -3.207,9.601 -7.839,17.121 -13.922,22.562 -6.085,5.43 -12.472,9.438 -19.199,12 -6.718,2.551 -13.769,3.988 -21.117,4.32 -7.363,0.321 -14.246,0.489 -20.641,0.489 H 568.215 V 365.352 H 416.531 v 693.118"
         style="fill:#040606;fill-opacity:1;fill-rule:nonzero;stroke:none"
         transform="matrix(0.13333333,0,0,-0.13333333,0,233.53333)" />
      <path
         id="path22"
         d="m 1348.07,661.031 c 0,5.758 -0.49,14.547 -1.44,26.399 -0.97,11.84 -4.17,23.84 -9.6,36 -5.45,12.148 -13.92,22.879 -25.44,32.164 -11.53,9.269 -27.53,13.918 -48.01,13.918 -15.35,0 -28.64,-3.047 -39.83,-9.121 -11.21,-6.086 -20.49,-14.082 -27.85,-24 -7.36,-9.93 -12.96,-21.45 -16.79,-34.563 -3.85,-13.117 -6.09,-26.726 -6.72,-40.797 z M 1167.58,571.75 c 0,-7.68 0.49,-18.879 1.44,-33.602 0.97,-14.726 4.64,-29.128 11.04,-43.199 6.4,-14.078 16.16,-26.398 29.29,-36.961 13.11,-10.558 32.15,-15.84 57.11,-15.84 17.92,0 34.72,4.473 50.41,13.442 15.67,8.961 27.03,26.879 34.08,53.762 h 129.6 c -0.65,-5.762 -1.44,-12.641 -2.41,-20.641 -0.95,-8.012 -3.04,-16.481 -6.24,-25.441 -3.2,-8.969 -7.84,-18.571 -13.92,-28.801 -6.09,-10.239 -13.91,-20.489 -23.51,-30.719 -17.93,-18.57 -41.76,-32.641 -71.53,-42.238 -29.76,-9.602 -62.56,-14.403 -98.39,-14.403 -10.25,0 -22.56,0.653 -36.97,1.922 -14.4,1.289 -29.45,4.168 -45.14,8.641 -15.71,4.488 -31.29,10.558 -46.76,18.238 -15.48,7.68 -29.65,18.238 -42.54,31.68 -22.56,23.039 -38.67,50.551 -48.33,82.558 -9.67,32 -14.5,67.524 -14.5,106.571 0,19.82 1.43,40.312 4.34,61.429 2.9,21.122 8.06,41.762 15.47,61.922 7.41,20.16 17.72,39.364 30.93,57.602 13.22,18.242 30.14,34.394 50.76,48.48 18.69,12.793 39.41,22.711 62.15,29.762 22.73,7.031 47.54,10.559 74.42,10.559 17.28,0 35.19,-1.922 53.76,-5.758 18.56,-3.844 36.48,-10.246 53.76,-19.199 17.28,-8.969 33.61,-20.973 48.96,-36 15.36,-15.047 28.47,-33.766 39.36,-56.164 8.31,-16.653 14.55,-33.282 18.72,-49.922 4.16,-16.649 7.04,-32.801 8.65,-48.481 1.58,-15.687 2.39,-30.238 2.39,-43.679 0,-13.438 -0.32,-25.29 -0.95,-35.52 h -325.45"
         style="fill:#040606;fill-opacity:1;fill-rule:nonzero;stroke:none"
         transform="matrix(0.13333333,0,0,-0.13333333,0,233.53333)" />
      <path
         id="path23"
         d="m 1834.79,451.75 c 33.91,0 59.66,14.719 77.28,44.16 17.59,29.43 26.4,68.16 26.4,116.16 0,14.071 -1.13,30.239 -3.37,48.481 -2.24,18.25 -6.88,35.359 -13.91,51.359 -7.05,15.988 -16.97,29.43 -29.76,40.324 -12.82,10.871 -29.76,16.317 -50.88,16.317 -11.53,0 -23.86,-2.563 -36.97,-7.68 -13.12,-5.129 -25.12,-13.922 -36,-26.402 -10.89,-12.481 -20.01,-29.278 -27.36,-50.399 -7.36,-21.121 -11.04,-48 -11.04,-80.64 0,-7.051 0.63,-18.879 1.92,-35.52 1.28,-16.648 5.29,-33.601 12.01,-50.879 6.71,-17.281 17.11,-32.492 31.2,-45.601 14.06,-13.121 34.23,-19.68 60.48,-19.68 z m -105.61,398.402 3.84,-69.121 c 10.88,19.199 23.67,34.235 38.41,45.121 14.71,10.875 29.27,18.723 43.67,23.524 14.41,4.797 27.51,7.679 39.36,8.637 11.84,0.96 20.64,1.441 26.4,1.441 31.36,0 59.53,-5.613 84.49,-16.805 24.95,-11.199 46.08,-27.355 63.36,-48.476 17.28,-21.121 30.55,-46.563 39.83,-76.325 9.27,-29.757 13.93,-63.207 13.93,-100.316 0,-34.562 -4.49,-67.363 -13.45,-98.402 -8.97,-31.051 -22.24,-58.559 -39.84,-82.559 -17.6,-24 -39.52,-43.051 -65.76,-57.121 -26.25,-14.078 -56.96,-21.121 -92.16,-21.121 -21.76,0 -40.48,2.57 -56.16,7.68 -15.69,5.121 -28.8,11.043 -39.35,17.761 -10.56,6.719 -19.06,13.59 -25.45,20.641 -6.4,7.039 -11.2,12.48 -14.4,16.32 V 179.109 h -144.96 v 671.043 h 138.24"
         style="fill:#040606;fill-opacity:1;fill-rule:nonzero;stroke:none"
         transform="matrix(0.13333333,0,0,-0.13333333,0,233.53333)" />
      <path
         id="path24"
         d="m 2312.41,602.469 c 0,-54.399 8.96,-93.93 26.88,-118.559 17.91,-24.64 44.47,-36.961 79.68,-36.961 15.36,0 29.59,2.551 42.72,7.68 13.11,5.121 24.15,14.07 33.12,26.883 8.95,12.797 15.99,29.91 21.12,51.359 5.11,21.438 7.68,48.149 7.68,80.16 0,15.989 -1.12,32.957 -3.36,50.879 -2.25,17.91 -7.05,34.559 -14.4,49.922 -7.36,15.359 -18.09,27.988 -32.16,37.922 -14.09,9.914 -32.97,14.879 -56.64,14.879 -26.25,0 -46.41,-6.567 -60.48,-19.684 -14.08,-13.121 -24.33,-28.48 -30.72,-46.078 -6.4,-17.609 -10.24,-35.68 -11.52,-54.242 -1.29,-18.57 -1.92,-33.277 -1.92,-44.16 z m -145.92,0.961 c 0,29.429 4.15,59.359 12.48,89.761 8.31,30.399 22.08,58.079 41.28,83.039 19.2,24.961 44.79,45.438 76.8,61.442 32,15.992 72,24 120,24 44.16,0 82.08,-6.887 113.76,-20.641 31.68,-13.769 57.75,-32.324 78.24,-55.679 20.48,-23.368 35.52,-50.403 45.12,-81.122 9.6,-30.718 14.4,-63.039 14.4,-96.96 0,-33.93 -4.96,-66.571 -14.88,-97.918 -9.93,-31.364 -25.29,-59.043 -46.08,-83.043 -20.8,-24 -47.2,-43.047 -79.2,-57.118 -32.01,-14.07 -70.08,-21.121 -114.24,-21.121 -34.56,0 -66.88,5.282 -96.96,15.84 -30.09,10.559 -56.32,26.559 -78.72,48 -22.41,21.442 -40,48.149 -52.8,80.16 -12.81,32 -19.2,69.121 -19.2,111.36"
         style="fill:#040606;fill-opacity:1;fill-rule:nonzero;stroke:none"
         transform="matrix(0.13333333,0,0,-0.13333333,0,233.53333)" />
      <path
         id="path25"
         d="m 3016.75,416.34 v 0.211 h -140 V 416.34 C 2876.75,263.969 2752.79,140 2600.41,140 h -0.21 V 0 h 0.21 c 229.57,0 416.34,186.77 416.34,416.34"
         style="fill:#040606;fill-opacity:1;fill-rule:nonzero;stroke:none"
         transform="matrix(0.13333333,0,0,-0.13333333,0,233.53333)" />
    </g>
  </g>
</svg>
